<svg xmlns="http://www.w3.org/2000/svg" xmlns:xlink="http://www.w3.org/1999/xlink" viewBox="0 0 277.41 400"><defs><style>.cls-1{fill:none;}.cls-2{clip-path:url(#clip-path);}.cls-3{fill:#c1272d;}.cls-4{fill:#f7931e;}</style><clipPath id="clip-path" transform="translate(0)"><path class="cls-1" d="M212.06,0,138.7,105.67,65.29,0H0V261.29H76.6v-129L79.23,136l46.54,64.63L138.26,218l.44.61,12.83-18,46.2-64.85h.05l3-4.26V261.29A62.1,62.1,0,0,1,84.72,292L38,356.54a138.64,138.64,0,0,0,239.45-95.25V0Z"/></clipPath></defs><title>mjcolor-simple</title><g id="Capa_2" data-name="Capa 2"><g id="Capa_1-2" data-name="Capa 1"><g class="cls-2"><path class="cls-3" d="M277.41,24.47V261.29A138.64,138.64,0,0,1,38,356.54L84.72,292a62.1,62.1,0,0,0,116.09-30.69V131.65Z" transform="translate(0)"/><polygon class="cls-4" points="277.41 0 277.41 24.47 200.81 131.65 200.81 131.48 197.78 135.74 197.73 135.74 151.53 200.59 138.7 218.56 138.26 217.95 125.77 200.59 79.23 135.96 76.6 132.27 76.6 261.29 0 261.29 0 0 65.29 0 138.7 105.67 212.06 0 277.41 0"/></g></g></g></svg>